<?xml version="1.0" encoding="utf-8"?>
<!-- Generator: Adobe Illustrator 18.1.0, SVG Export Plug-In . SVG Version: 6.00 Build 0)  -->
<svg version="1.1" id="Layer_1" xmlns="http://www.w3.org/2000/svg" xmlns:xlink="http://www.w3.org/1999/xlink" x="0px" y="0px"
	 viewBox="0 0 33.1 22.1" enable-background="new 0 0 33.1 22.1" xml:space="preserve">
<g>
	<g>
		<g>
			<path fill="#41B8CC" d="M33.1,19.3c0,1.5-1.2,2.8-2.8,2.8H2.8c-1.5,0-2.8-1.2-2.8-2.8V2.8C0,1.2,1.2,0,2.8,0h27.6
				c1.5,0,2.8,1.2,2.8,2.8V19.3z"/>
			<path fill="#3BB3BF" d="M32.3,0.8c0.5,0.5,0.8,1.2,0.8,2V11v8.3c0,0.8-0.3,1.4-0.8,2c-0.5,0.5-1.2,0.8-2,0.8H16.6H2.8
				c-0.8,0-1.4-0.3-2-0.8L32.3,0.8z"/>
			<g>
				<path fill="#FFFFFF" d="M9.7,13.8l-0.3-1H7.8l-0.3,1H6l1.7-5.1h1.8l1.7,5.1H9.7z M9.2,11.7l-0.2-0.8c-0.1-0.2-0.1-0.4-0.2-0.7
					C8.7,9.8,8.6,9.6,8.6,9.5c0,0.1-0.1,0.3-0.1,0.6s-0.2,0.8-0.4,1.6L9.2,11.7L9.2,11.7z"/>
				<path fill="#FFFFFF" d="M14,13.8l-1-3.7h0c0,0.6,0.1,1.1,0.1,1.5v2.2h-1.2V8.6h1.8l1.1,3.6h0l1-3.6h1.8v5.1h-1.3v-2.2
					c0-0.1,0-0.2,0-0.4c0-0.1,0-0.5,0-1h0l-1,3.7L14,13.8L14,13.8z"/>
				<path fill="#FFFFFF" d="M21.6,13.8h-3V8.6h3v1.1h-1.7v0.8h1.5v1.1h-1.5v1h1.7V13.8z"/>
				<path fill="#FFFFFF" d="M27.1,13.8h-1.6l-1-1.6l-1,1.6H22l1.7-2.6l-1.6-2.5h1.5l0.9,1.6l0.9-1.6H27l-1.6,2.6L27.1,13.8z"/>
			</g>
			<g>
				<path fill="#FFFFFF" d="M9.7,13.8l-0.3-1H7.8l-0.3,1H6l1.7-5.1h1.8l1.7,5.1H9.7z M9.2,11.7l-0.2-0.8c-0.1-0.2-0.1-0.4-0.2-0.7
					C8.7,9.8,8.6,9.6,8.6,9.5c0,0.1-0.1,0.3-0.1,0.6s-0.2,0.8-0.4,1.6L9.2,11.7L9.2,11.7z"/>
				<path fill="#FFFFFF" d="M14,13.8l-1-3.7h0c0,0.6,0.1,1.1,0.1,1.5v2.2h-1.2V8.6h1.8l1.1,3.6h0l1-3.6h1.8v5.1h-1.3v-2.2
					c0-0.1,0-0.2,0-0.4c0-0.1,0-0.5,0-1h0l-1,3.7L14,13.8L14,13.8z"/>
				<path fill="#FFFFFF" d="M21.6,13.8h-3V8.6h3v1.1h-1.7v0.8h1.5v1.1h-1.5v1h1.7V13.8z"/>
				<path fill="#FFFFFF" d="M27.1,13.8h-1.6l-1-1.6l-1,1.6H22l1.7-2.6l-1.6-2.5h1.5l0.9,1.6l0.9-1.6H27l-1.6,2.6L27.1,13.8z"/>
			</g>
			<path fill="#57B1D9" d="M16.6,0"/>
		</g>
		<g>
			<path fill="#9CCEDF" d="M30.4,0.6c1.2,0,2.2,1,2.2,2.2v16.6c0,1.2-1,2.2-2.2,2.2H2.8c-1.2,0-2.2-1-2.2-2.2V2.8
				c0-1.2,1-2.2,2.2-2.2H30.4 M30.4,0H2.8C1.2,0,0,1.2,0,2.8v16.6c0,1.5,1.2,2.8,2.8,2.8h27.6c1.5,0,2.8-1.2,2.8-2.8V2.8
				C33.1,1.2,31.9,0,30.4,0L30.4,0z"/>
		</g>
	</g>
</g>
</svg>
