<?xml version="1.0" encoding="utf-8"?>
<!-- Generator: Adobe Illustrator 18.1.0, SVG Export Plug-In . SVG Version: 6.00 Build 0)  -->
<svg version="1.1" id="Layer_1" xmlns="http://www.w3.org/2000/svg" xmlns:xlink="http://www.w3.org/1999/xlink" x="0px" y="0px"
	 viewBox="0 0 33.1 22.1" enable-background="new 0 0 33.1 22.1" xml:space="preserve">
<g>
	<path fill="#5666AF" d="M33.1,19.3c0,1.5-1.2,2.8-2.8,2.8H2.8c-1.5,0-2.8-1.2-2.8-2.8V2.8C0,1.2,1.2,0,2.8,0h27.6
		c1.5,0,2.8,1.2,2.8,2.8V19.3z"/>
	<path opacity="4.000000e-02" fill="#FFFFFF" enable-background="new    " d="M32.3,0.8c0.5,0.5,0.8,1.2,0.8,2V11v8.3
		c0,0.8-0.3,1.4-0.8,2c-0.5,0.5-1.2,0.8-2,0.8H16.6H2.8c-0.8,0-1.4-0.3-2-0.8L32.3,0.8z"/>
	<path fill="#57B1D9" d="M16.6,0"/>
	<g>
		<path fill="#EA574C" d="M16.6,7.4c-1-1.1-2.5-1.9-4.1-1.9c-3,0-5.5,2.5-5.5,5.5c0,3,2.5,5.5,5.5,5.5c1.7,0,3.1-0.7,4.1-1.9
			c-0.9-1-1.4-2.2-1.4-3.6S15.7,8.4,16.6,7.4z"/>
		<path fill="#EA574C" d="M16.6,7.4c-0.9,1-1.4,2.2-1.4,3.6s0.5,2.7,1.4,3.6c0.9-1,1.4-2.2,1.4-3.6S17.4,8.4,16.6,7.4z"/>
	</g>
	<path fill="#E6A226" d="M20.7,5.5c-1.7,0-3.1,0.7-4.1,1.9c-0.2,0.3-0.4,0.6-0.6,0.9h1.3c0.2,0.3,0.4,0.7,0.5,1.1h-2.2
		c-0.1,0.4-0.2,0.7-0.2,1.1h2.7c0,0.2,0,0.4,0,0.6c0,0.2,0,0.4,0,0.6h-2.7c0,0.4,0.1,0.7,0.2,1.1h2.2c-0.1,0.4-0.3,0.8-0.5,1.1h-1.3
		c0.2,0.3,0.4,0.6,0.6,0.9c1,1.1,2.5,1.9,4.1,1.9c3,0,5.5-2.5,5.5-5.5C26.2,8,23.8,5.5,20.7,5.5z"/>
	<g>
		<path fill="#7784B7" d="M30.4,0.6c1.2,0,2.2,1,2.2,2.2v16.6c0,1.2-1,2.2-2.2,2.2H2.8c-1.2,0-2.2-1-2.2-2.2V2.8
			c0-1.2,1-2.2,2.2-2.2H30.4 M30.4,0H2.8C1.2,0,0,1.2,0,2.8v16.6c0,1.5,1.2,2.8,2.8,2.8h27.6c1.5,0,2.8-1.2,2.8-2.8V2.8
			C33.1,1.2,31.9,0,30.4,0L30.4,0z"/>
	</g>
</g>
</svg>
