<?xml version="1.0" encoding="UTF-8" standalone="no"?>
<svg width="14px" height="13px" viewBox="0 0 14 13" version="1.1" xmlns="http://www.w3.org/2000/svg" xmlns:xlink="http://www.w3.org/1999/xlink" xmlns:sketch="http://www.bohemiancoding.com/sketch/ns">
    <!-- Generator: Sketch 3.3.3 (12081) - http://www.bohemiancoding.com/sketch -->
    <title>arrow-back-sm</title>
    <desc>Created with Sketch.</desc>
    <defs></defs>
    <g id="Page-1" stroke="none" stroke-width="1" fill="none" fill-rule="evenodd" sketch:type="MSPage">
        <path d="M0.4,6.1 L0.4,6.1 L0.3,6.2 C0.2,6.4 0.1,6.6 0.1,6.9 C0.1,7.2 0.2,7.4 0.3,7.6 L0.3,7.6 C0.3,7.6 0.3,7.6 0.4,7.7 L5.4,12.7 C5.8,13.1 6.6,13.1 7,12.7 C7.4,12.3 7.4,11.5 7,11.1 L4,8 L12.6,8 C13.2,8 13.7,7.5 13.7,6.9 C13.7,6.3 13.2,5.8 12.6,5.8 L4,5.8 L7.1,2.7 C7.5,2.3 7.5,1.5 7.1,1.1 C6.7,0.7 5.9,0.7 5.5,1.1 L0.4,6.1 L0.4,6.1 L0.4,6.1 Z" id="arrow-back-sm" fill="#41B8CC" sketch:type="MSShapeGroup"></path>
    </g>
</svg>