<?xml version="1.0" encoding="UTF-8" standalone="no"?>
<svg width="11px" height="20px" viewBox="0 0 11 20" version="1.1" xmlns="http://www.w3.org/2000/svg" xmlns:xlink="http://www.w3.org/1999/xlink" xmlns:sketch="http://www.bohemiancoding.com/sketch/ns">
    <!-- Generator: Sketch 3.3.3 (12081) - http://www.bohemiancoding.com/sketch -->
    <title>facebook</title>
    <desc>Created with Sketch.</desc>
    <defs></defs>
    <g id="Page-1" stroke="none" stroke-width="1" fill="none" fill-rule="evenodd" sketch:type="MSPage">
        <path d="M0.8,7 L2.8,7 L2.8,6.1 L2.8,5.2 L2.8,5 C2.8,4.1 2.8,2.8 3.4,2 C4.1,1.1 5,0.5 6.5,0.5 C9,0.5 10.1,0.9 10.1,0.9 L9.6,3.9 C9.6,3.9 8.8,3.7 8,3.7 C7.2,3.7 6.5,4 6.5,4.8 L6.5,5.1 L6.5,6.1 L6.5,7 L9.7,7 L9.5,9.9 L6.5,9.9 L6.5,20 L2.7,20 L2.7,9.9 L0.7,9.9 L0.7,7" id="facebook" fill="#000000" sketch:type="MSShapeGroup"></path>
    </g>
</svg>