<?xml version="1.0" encoding="UTF-8" standalone="no"?>
<svg width="39px" height="37px" viewBox="0 0 39 37" version="1.1" xmlns="http://www.w3.org/2000/svg" xmlns:xlink="http://www.w3.org/1999/xlink" xmlns:sketch="http://www.bohemiancoding.com/sketch/ns">
    <!-- Generator: Sketch 3.3.3 (12081) - http://www.bohemiancoding.com/sketch -->
    <title>faq</title>
    <desc>Created with Sketch.</desc>
    <defs></defs>
    <g id="Page-1" stroke="none" stroke-width="1" fill="none" fill-rule="evenodd" sketch:type="MSPage">
        <path d="M39,16.9 C39,26.3 30.3,33.8 19.5,33.8 C16.9,33.8 14.5,33.4 12.3,32.6 C9.2,34.3 6.4,35.5 2.7,36.2 C1.6,36.4 1.1,36.4 1,36.3 C0.9,36.1 1.3,35.8 1.6,35.6 C5.2,32.8 5.8,31.3 6.7,29.7 C2.6,26.6 0.1,22 0.1,17 C0.1,7.6 8.8,4.62895781e-14 19.6,4.62895781e-14 C30.3,-0.1 39,7.5 39,16.9 Z M16.326,13.6242 C16.606,11.7762 17.726,10.9922 19.21,10.9922 C20.862,10.9922 22.038,11.9162 22.038,13.9602 C22.038,16.3402 20.638,17.3202 18.51,17.3202 L17.502,17.3202 L17.502,21.0722 L19.798,21.0722 L19.798,18.7762 C22.094,18.7202 24.642,17.1802 24.642,13.7642 C24.642,10.8802 22.57,8.8642 19.378,8.8642 C16.326,8.8642 14.59,10.4602 14.086,12.8122 L16.326,13.6242 Z M16.886,24.1242 C16.886,25.1042 17.642,25.8602 18.65,25.8602 C19.658,25.8602 20.442,25.1042 20.442,24.1242 C20.442,23.1162 19.658,22.3882 18.65,22.3882 C17.642,22.3882 16.886,23.1162 16.886,24.1242 Z" id="faq" fill="#000000" sketch:type="MSShapeGroup"></path>
    </g>
</svg>