<?xml version="1.0" encoding="UTF-8" standalone="no"?>
<svg width="30px" height="28px" viewBox="0 0 30 28" version="1.1" xmlns="http://www.w3.org/2000/svg" xmlns:xlink="http://www.w3.org/1999/xlink" xmlns:sketch="http://www.bohemiancoding.com/sketch/ns">
    <!-- Generator: Sketch 3.3.3 (12081) - http://www.bohemiancoding.com/sketch -->
    <title>how-rock</title>
    <desc>Created with Sketch.</desc>
    <defs></defs>
    <g id="Page-1" stroke="none" stroke-width="1" fill="none" fill-rule="evenodd" sketch:type="MSPage">
        <path d="M29.8,4.9 C29.7,4.7 29.6,4.6 29.5,4.5 L21.1,0.9 C20.8,0.8 20.5,0.9 20.4,1.1 L17.5,5.8 L9.5,6.7 L9,5.6 C8.9,5.5 8.8,5.4 8.7,5.3 L1.6,1.9 C1.4,1.8 1.1,1.8 0.9,2 C0.7,2.2 0.7,2.4 0.8,2.7 L3.1,8.1 L3.1,22 C3.1,22.2 3.2,22.4 3.4,22.5 L11,27.4 L11.1,27.4 L11.2,27.4 L11.4,27.4 L11.5,27.4 L25.6,25.8 C25.9,25.8 26.1,25.5 26.1,25.2 L26.1,11.4 L29.8,5.3 C29.8,5.3 29.8,5.1 29.8,4.9 L29.8,4.9 Z M17.2,7.1 L17.2,11.7 L11.8,12.3 L9.9,7.9 L17.2,7.1 L17.2,7.1 Z M18.4,7.5 L23.7,10.9 L18.4,11.5 L18.4,7.5 L18.4,7.5 Z M8,6.4 L10.2,11.6 L4.1,7.7 L2.4,3.8 L8,6.4 L8,6.4 Z M4.3,9.1 L10.7,13.2 L10.7,25.8 L4.3,21.7 L4.3,9.1 L4.3,9.1 Z M11.9,26.3 L11.9,13.5 L24.9,12 L24.9,24.8 L11.9,26.3 L11.9,26.3 Z M25.2,10.5 L18.6,6.2 L21.1,2.2 L28.4,5.4 L25.2,10.5 L25.2,10.5 Z" id="how-rock" fill="#000000" sketch:type="MSShapeGroup"></path>
    </g>
</svg>