<?xml version="1.0" encoding="UTF-8" standalone="no"?>
<svg width="29px" height="29px" viewBox="0 0 29 29" version="1.1" xmlns="http://www.w3.org/2000/svg" xmlns:xlink="http://www.w3.org/1999/xlink" xmlns:sketch="http://www.bohemiancoding.com/sketch/ns">
    <!-- Generator: Sketch 3.3.3 (12081) - http://www.bohemiancoding.com/sketch -->
    <title>how-share</title>
    <desc>Created with Sketch.</desc>
    <defs></defs>
    <g id="Page-1" stroke="none" stroke-width="1" fill="none" fill-rule="evenodd" sketch:type="MSPage">
        <path d="M19.2,0.9 L10.1,0.9 C4.8,0.9 0.6,5.6 0.6,11.3 C0.6,16.2 3.7,20.3 8,21.4 L8,28 C8,28.2 8.1,28.4 8.3,28.5 C8.4,28.5 8.5,28.6 8.5,28.6 C8.6,28.6 8.8,28.6 8.9,28.5 L16.5,21.8 L19.1,21.8 C24.4,21.8 28.6,17.1 28.6,11.4 C28.8,5.6 24.5,0.9 19.2,0.9 L19.2,0.9 Z M19.2,20.5 L16.3,20.5 C16.2,20.5 16,20.6 15.9,20.6 L9.1,26.6 L9.1,20.9 C9.1,20.6 8.9,20.4 8.6,20.3 C4.6,19.5 1.7,15.7 1.7,11.2 C1.7,6.1 5.5,2 10.1,2 L19.2,2 C23.8,2 27.6,6.1 27.6,11.2 C27.6,16.4 23.8,20.5 19.2,20.5 Z M23.6,9.3 L21.9,8.3 C21.6,6.8 20.4,5.8 18.9,5.8 C17.5,5.8 16.2,6.5 15.2,7.7 C14.5,7.4 13.5,7 12,7 C11.3,7 10.6,7.1 9.8,7.2 C9.4,7.3 9.2,7.6 9.2,8 C9.2,8.3 9.6,10.2 10.9,11.4 C10.4,11.5 9.9,11.4 9.4,11.4 L8.8,11.4 C8.6,11.4 7.8,11.4 7.4,12.2 C7.2,12.5 7.2,12.8 7.3,13.2 C6.8,13.4 6.5,13.7 6.4,14.1 C6.3,14.3 6.3,14.9 6.9,15.4 C7.4,15.8 8.2,16 9.2,16 C10.1,16 11.1,15.8 11.9,15.7 C12.7,16.7 13.9,17.2 15.3,17.2 L15.9,17.2 C21.1,16.7 21.8,12.5 22,11.2 L23.4,10.6 C23.6,10.5 23.8,10.2 23.8,10 C24,9.7 23.8,9.4 23.6,9.3 Z M20.9,10.8 C20.9,11.6 20.6,15.6 15.9,16.1 L15.4,16.1 C13.6,16.1 12.9,15.2 12.7,14.8 C12.6,14.6 12.4,14.5 12.2,14.5 L12,14.5 C11.3,14.7 10.2,14.9 9.3,14.9 C8.3,14.9 7.8,14.7 7.7,14.6 L7.6,14.5 C7.7,14.4 7.9,14.3 8.4,14.2 C8.6,14.2 8.8,14 8.9,13.8 C9,13.6 8.9,13.4 8.7,13.2 C8.6,13.2 8.5,13 8.5,12.9 C8.6,12.7 8.7,12.7 8.9,12.7 L9.4,12.7 C9.7,12.7 10,12.8 10.4,12.8 C11.2,12.8 11.9,12.7 12.7,12.4 C12.9,12.3 13.1,12.1 13.1,11.9 C13.1,11.7 13,11.4 12.7,11.4 C11.3,10.8 10.7,9.3 10.6,8.5 C11.1,8.4 11.6,8.4 12.1,8.4 C13.8,8.4 14.7,8.9 15.1,9.2 C15.2,9.3 15.4,9.3 15.5,9.3 C15.7,9.3 15.8,9.2 15.9,9.1 C16.7,8 17.9,7.2 19,7.2 C20.1,7.2 20.8,7.8 20.9,8.9 C20.9,9.1 21,9.2 21.2,9.3 L22.4,10 L21.5,10.4 C21.1,10.4 20.9,10.6 20.9,10.8 Z M18.9,9.8 C19.3418278,9.8 19.7,9.4418278 19.7,9 C19.7,8.5581722 19.3418278,8.2 18.9,8.2 C18.4581722,8.2 18.1,8.5581722 18.1,9 C18.1,9.4418278 18.4581722,9.8 18.9,9.8 Z" id="how-share" fill="#000000" sketch:type="MSShapeGroup"></path>
    </g>
</svg>