<?xml version="1.0" encoding="UTF-8" standalone="no"?>
<svg width="20px" height="17px" viewBox="0 0 20 17" version="1.1" xmlns="http://www.w3.org/2000/svg" xmlns:xlink="http://www.w3.org/1999/xlink" xmlns:sketch="http://www.bohemiancoding.com/sketch/ns">
    <!-- Generator: Sketch 3.3.3 (12081) - http://www.bohemiancoding.com/sketch -->
    <title>twitter</title>
    <desc>Created with Sketch.</desc>
    <defs></defs>
    <g id="Page-1" stroke="none" stroke-width="1" fill="none" fill-rule="evenodd" sketch:type="MSPage">
        <path d="M13.9,0.2 C14.6,0.2 15.3,0.5 15.9,1 C16.4,1.5 16.9,1.5 17.5,1.2 C17.6,1.1 17.7,1.1 17.9,1.1 C18.3,0.9 18.6,0.8 19.1,0.6 C19.1,1.1 18.8,1.4 18.5,1.8 C18.2,2.1 17.9,2.4 17.6,2.8 C18.3,2.6 18.9,2.5 19.5,2.3 C19.3,2.8 19.1,3.1 17.8,4.3 C17.7,5.1 17.7,5.8 17.6,6.5 C17.3,8.1 16.8,9.6 16,10.9 C15.3,12.1 14.4,13.1 13.3,13.9 C11.7,15.2 9.9,15.9 7.8,16.2 C6.1,16.4 4.3,16.3 2.7,15.8 C1.8,15.5 1,15.1 0.1,14.7 C0.3,14.5 0.5,14.6 0.7,14.6 C1.5,14.6 2.2,14.5 3,14.4 C4.1,14.1 5,13.7 5.9,13 C3.6,12.6 2.5,11.2 2.3,10.1 C3,10.2 3.4,10.2 3.8,10 C2,9.6 0.6,7.6 0.9,6.1 C1.4,6.3 1.8,6.5 2.4,6.5 C1.7,5.8 1.2,5 1,4 C0.8,3 0.9,2.1 1.5,1.1 C2.6,2.3 3.8,3.3 5.2,4.1 C6.6,4.8 8.1,5.3 9.8,5.3 L9.8,4.6 C9.8,4.2 9.8,3.9 9.9,3.5 C10.3,1.7 11.6,0.5 13.5,0.3 C13.2,0.2 13.8,0.2 13.9,0.2 L13.9,0.2 Z" id="twitter" fill="#000000" sketch:type="MSShapeGroup"></path>
    </g>
</svg>