<?xml version="1.0" encoding="UTF-8" standalone="no"?>
<svg width="12px" height="12px" viewBox="0 0 12 12" version="1.1" xmlns="http://www.w3.org/2000/svg" xmlns:xlink="http://www.w3.org/1999/xlink" xmlns:sketch="http://www.bohemiancoding.com/sketch/ns">
    <!-- Generator: Sketch 3.3.3 (12081) - http://www.bohemiancoding.com/sketch -->
    <title>Shape</title>
    <desc>Created with Sketch.</desc>
    <defs></defs>
    <g id="Page-1" stroke="none" stroke-width="1" fill="none" fill-rule="evenodd" sketch:type="MSPage">
        <path d="M6.2,0.2 C3,0.2 0.4,2.8 0.4,6 C0.4,9.2 3,11.8 6.2,11.8 C9.4,11.8 12,9.2 12,6 C12,2.8 9.4,0.2 6.2,0.2 L6.2,0.2 Z M6.2,2.7 C6.7,2.7 7.1,3.1 7.1,3.6 C7.1,4.1 6.7,4.5 6.2,4.5 C5.7,4.5 5.3,4.1 5.3,3.6 C5.3,3.1 5.7,2.7 6.2,2.7 L6.2,2.7 Z M7.5,8.9 L4.8,8.9 L4.8,8.4 L5.2,8.4 C5.3,8.4 5.3,8.4 5.3,8.3 L5.3,5.4 C5.3,5.3 5.3,5.3 5.2,5.3 L4.8,5.3 L4.8,4.9 L7,4.9 L7,8.3 C7,8.4 7,8.4 7.1,8.4 L7.5,8.4 L7.5,8.9 L7.5,8.9 Z" id="Shape" fill="#808285" sketch:type="MSShapeGroup"></path>
    </g>
</svg>