<?xml version="1.0" encoding="UTF-8" standalone="no"?>
<svg width="28px" height="27px" viewBox="0 0 28 27" version="1.1" xmlns="http://www.w3.org/2000/svg" xmlns:xlink="http://www.w3.org/1999/xlink" xmlns:sketch="http://www.bohemiancoding.com/sketch/ns">
    <!-- Generator: Sketch 3.3.3 (12081) - http://www.bohemiancoding.com/sketch -->
    <title>how-donate</title>
    <desc>Created with Sketch.</desc>
    <defs></defs>
    <g id="Page-1" stroke="none" stroke-width="1" fill="none" fill-rule="evenodd" sketch:type="MSPage">
        <path d="M6.1,16.4 C6.5418278,16.4 6.9,16.0418278 6.9,15.6 C6.9,15.1581722 6.5418278,14.8 6.1,14.8 C5.6581722,14.8 5.3,15.1581722 5.3,15.6 C5.3,16.0418278 5.6581722,16.4 6.1,16.4 Z M15.8,11 C18.7,11 21.1,8.6 21.1,5.7 C21.1,2.8 18.7,0.4 15.8,0.4 C12.9,0.4 10.5,2.8 10.5,5.7 C10.6,8.7 12.9,11 15.8,11 Z M15.8,1.6 C18.1,1.6 20,3.5 20,5.8 C20,8.1 18.1,10 15.8,10 C13.5,10 11.6,8.1 11.6,5.8 C11.7,3.5 13.5,1.6 15.8,1.6 Z M14.1,7.6 C14.5,7.9 15,8.1 15.5,8.2 L15.5,8.5 C15.5,8.7 15.7,8.9 15.9,8.9 C16.1,8.9 16.3,8.7 16.3,8.5 L16.3,8.2 C17.2,8.1 17.7,7.5 17.7,6.8 C17.7,6.1 17.3,5.6 16.3,5.4 L16.3,4.1 C16.5,4.2 16.7,4.3 16.9,4.4 C17,4.5 17.1,4.5 17.2,4.5 C17.4,4.5 17.6,4.3 17.6,4.1 C17.6,3.9 17.4,3.8 17.4,3.7 C17.1,3.5 16.7,3.3 16.4,3.3 L16.4,3.2 C16.4,3 16.2,2.8 16,2.8 C15.8,2.8 15.6,3 15.6,3.2 C14.8,3.3 14.2,3.9 14.2,4.6 C14.2,5.5 14.9,5.9 15.6,6.1 L15.6,7.4 C15.3,7.3 15,7.2 14.7,6.9 C14.7,6.9 14.6,6.8 14.4,6.8 C14.2,6.8 14,7 14,7.2 C13.9,7.3 14,7.5 14.1,7.6 Z M15,4.6 C15,4.3 15.2,4.1 15.5,4.1 L15.5,5.2 C15,5 15,4.8 15,4.6 L15,4.6 Z M16.3,7.4 L16.3,6.3 C16.8,6.5 16.8,6.7 16.8,6.9 C16.8,7.1 16.6,7.3 16.3,7.4 Z M27.1,12.5 C26.8,12.4 26.5,12.5 26.4,12.7 C26.2,13 25.9,13.3 25.4,13.5 C25.6,13 25.7,12.5 25.6,12 C25.4,11.2 24.8,10.5 24,10.3 C23.5,10.2 23.1,10.3 22.8,10.6 C22.5,10.9 22.2,11.6 22.7,12.8 C22.9,13.3 23.1,13.8 23.5,14.1 C23.2,14.4 22.9,14.6 22.7,14.7 C22.2,13.2 21.2,11.8 19.8,10.8 C19.6,10.6 19.2,10.7 19,10.9 C18.8,11.1 18.9,11.5 19.1,11.7 C20.9,12.9 21.9,14.9 21.9,17 L21.9,17.3 L21.8,18 C21.7,18.7 21.5,19.4 21.1,20 C21,20.1 21,20.2 21,20.3 L21.5,24.9 C21.5,25.1 20.9,25.5 20.4,25.5 L19.6,25.5 C19.3,25.5 19,25.2 19,24.9 L19,24.8 L18.8,23.4 C18.8,23.2 18.7,23.1 18.5,23 C18.3,22.9 18.2,22.9 18,23 C16.7,23.7 13.5,23.8 12.2,23 C12,22.9 11.8,22.9 11.7,23 C11.5,23.1 11.4,23.2 11.4,23.4 L11.2,24.8 C11.2,24.8 11.2,24.8 11.2,24.9 C11.2,25.2 10.9,25.5 10.6,25.5 L9.3,25.5 C9,25.5 8.7,25.2 8.7,24.9 L9.2,21.9 C9.2,21.7 9.2,21.5 9,21.4 C8.9,21.3 8.7,21.2 8.5,21.3 C6.9,21.6 5.2,21 4.2,19.8 C4.1,19.7 4,19.7 3.9,19.6 L2.2,19.1 C2,19.1 2,19 2,19 L2,18.9 L1.7,16.6 C1.7,16.6 1.8,16.5 2,16.5 L3.2,16 C3.3,15.9 3.5,15.8 3.5,15.7 C4,14.2 5.3,13.1 6.9,12.8 C7.1,12.8 7.2,12.7 7.3,12.5 C7.4,12.3 7.4,12.2 7.3,12 L5.9,9.3 L6,9.3 C6.5,9.4 9.2,10.7 9.5,12.1 C9.5,12.3 9.7,12.4 9.9,12.5 C10.1,12.6 10.3,12.5 10.4,12.4 C10.8,12 11.3,11.6 11.9,11.3 C12.2,11.2 12.3,10.8 12.1,10.6 C12,10.3 11.6,10.2 11.4,10.4 C11,10.6 10.6,10.9 10.2,11.1 C9.2,9.4 6.5,8.2 6,8.2 L5.7,8.2 C5.1,8.3 4.7,8.8 4.7,9.4 C4.7,9.5 4.7,9.6 4.8,9.7 L6,12 C4.4,12.5 3.1,13.6 2.5,15.2 L1.6,15.6 C0.7,15.9 0.6,16.4 0.6,16.8 L0.6,16.9 L0.9,19.2 C0.9,19.7 1.3,20.1 1.9,20.3 L3.4,20.7 C4.5,22 6.2,22.7 7.9,22.6 L7.5,24.9 L7.5,25 C7.5,25.9 8.3,26.7 9.2,26.7 L10.5,26.7 C11.4,26.7 12.2,26 12.2,25 L12.3,24.4 C13.9,24.9 16.2,24.9 17.8,24.4 L17.9,25 C17.9,25.9 18.7,26.7 19.6,26.7 L20.4,26.7 C21.3,26.7 22.6,26 22.6,25 C22.6,25 22.6,25 22.6,24.9 L22.1,20.5 C22.5,19.8 22.7,19 22.8,18.2 L22.9,17.5 L22.9,17.4 L22.9,17.1 C22.9,16.7 22.9,16.3 22.8,15.9 C23.1,15.7 23.8,15.3 24.4,14.6 C25.6,14.8 26.8,13.9 27.2,13.1 C27.4,13 27.3,12.6 27.1,12.5 Z M24.2,13.4 C24,13.2 23.8,12.9 23.7,12.6 C23.4,11.9 23.5,11.6 23.6,11.5 L23.7,11.5 L23.8,11.5 C24.1,11.6 24.4,11.9 24.6,12.4 C24.6,12.7 24.4,13 24.2,13.4 L24.2,13.4 Z" id="how-donate" fill="#000000" sketch:type="MSShapeGroup"></path>
    </g>
</svg>