<?xml version="1.0" encoding="UTF-8" standalone="no"?>
<svg width="28px" height="25px" viewBox="0 0 28 25" version="1.1" xmlns="http://www.w3.org/2000/svg" xmlns:xlink="http://www.w3.org/1999/xlink" xmlns:sketch="http://www.bohemiancoding.com/sketch/ns">
    <!-- Generator: Sketch 3.3.3 (12081) - http://www.bohemiancoding.com/sketch -->
    <title>how-find</title>
    <desc>Created with Sketch.</desc>
    <defs></defs>
    <g id="Page-1" stroke="none" stroke-width="1" fill="none" fill-rule="evenodd" sketch:type="MSPage">
        <path d="M26.9,6.5 L23.1,2.2 C22.2,1.2 21,0.9 19.8,0.6 C18.7,0.3 18.4,0.2 17.6,0.2 C17.5,0.2 17.5,0.1 17.3,0.2 C16.7,0.2 16.2,0.2 15.6,0.3 C12.3,0.7 12.1,0.1 10.2,0.1 C10,-2.52575738e-14 10,0.1 9.8,0.1 C9.1,0.2 9.2,0.2 7.9,0.5 C6.7,0.7 5.3,1 4.5,1.9 L0.5,6.4 C-0.2,7.2 0.9,8.2 1.7,9 C1.8,9.1 1.9,9.2 2,9.3 C2.2,9.5 2.3,9.7 2.5,9.9 C3,10.6 3.4,11 4.1,11 C4.3,11 4.5,11 4.7,10.9 L4.7,23.9 C4.7,24.2 4.9,24.4 5.2,24.4 L22,24.4 C22.1,24.4 22.3,24.3 22.4,24.2 C22.5,24.1 22.6,24 22.6,23.8 L22.6,10.8 C22.8,10.9 23,10.9 23.2,10.9 C23.8,10.9 24.2,10.5 24.6,9.9 C24.6,9.9 24.8,9.7 24.9,9.5 C27.1,7.3 27.3,7 26.9,6.5 L26.9,6.5 Z M15.7,1.4 C16.1,1.4 16.4,1.3 16.7,1.3 C16.1,3 14.8,3.8 13.6,3.8 L13.6,3.8 C12.5,3.8 11.2,3.1 10.7,1.3 C12.3,1.3 12.7,1.7 15.7,1.4 L15.7,1.4 Z M4.1,9.9 C3.9,9.9 3.8,9.9 3.3,9.2 C3.2,9 3,8.8 2.8,8.6 C2.7,8.5 2.6,8.4 2.5,8.2 C2.3,8 1.6,7.3 1.5,7 L5.4,2.6 C6.5,6.4 5.3,9.1 5,9.7 C4.6,9.9 4.3,9.9 4.1,9.9 L4.1,9.9 Z M5.8,23.4 L5.8,10.4 C6.2,9.7 7.7,6.6 6.3,2.1 C6.8,1.9 7.5,1.8 8.1,1.6 C8.5,1.5 8.9,1.4 9.2,1.4 C9.3,1.4 9.4,1.4 9.5,1.3 C10.1,3.7 11.9,4.8 13.5,4.9 L13.6,4.9 C15.3,4.9 17.1,3.8 17.8,1.4 C18,1.4 18.3,1.5 18.5,1.6 C18.8,1.7 19.2,1.8 19.5,1.8 C20,1.9 20.5,2 21,2.2 C19.6,6.7 21.1,9.8 21.5,10.5 L21.5,23.5 L5.8,23.5 L5.8,23.4 Z M24.2,9 C24,9.2 23.9,9.3 23.9,9.4 C23.5,9.9 23.4,10 23.3,10 C23.2,10 23,9.9 22.8,9.9 C22.7,9.9 22.6,9.8 22.5,9.8 C22.1,9.1 21,6.5 22.1,2.7 C22.2,2.8 22.3,2.9 22.4,3 L26,7.1 C25.5,7.5 24.5,8.6 24.2,9 L24.2,9 Z" id="how-find" fill="#000000" sketch:type="MSShapeGroup"></path>
    </g>
</svg>