<?xml version="1.0" encoding="UTF-8" standalone="no"?>
<svg width="18px" height="18px" viewBox="0 0 18 18" version="1.1" xmlns="http://www.w3.org/2000/svg" xmlns:xlink="http://www.w3.org/1999/xlink" xmlns:sketch="http://www.bohemiancoding.com/sketch/ns">
    <!-- Generator: Sketch 3.3.3 (12081) - http://www.bohemiancoding.com/sketch -->
    <title>instagram</title>
    <desc>Created with Sketch.</desc>
    <defs></defs>
    <g id="Page-1" stroke="none" stroke-width="1" fill="none" fill-rule="evenodd" sketch:type="MSPage">
        <path d="M0.7,6.4 L5.3,6.4 C4.7,7.8 4.6,9.2 5.1,10.5 C5.5,11.4 6.1,12.2 7,12.7 C8.7,13.7 10.9,13.6 12.4,12.4 C14.2,11 14.6,9 13.7,6.4 L17.7,6.4 L17.7,7 L17.7,14.2 C17.7,15 17.5,15.8 16.9,16.4 C16.4,16.9 15.8,17.1 15.2,17.1 L3.8,17.1 C2.6,17.1 1.7,16.6 1.1,15.7 C0.8,15.3 0.6,14.8 0.6,14.3 L0.6,6.5 C0.7,6.5 0.7,6.5 0.7,6.4 Z M17.9,5.3 L13.1,5.3 C10.8,3.3 8.1,3.5 6.2,5.3 L0.8,5.3 C0.8,4.2 0.7,3.1 0.8,2.1 C1,0.9 2.4,0 3.7,0 L15.6,0 C16.8,0 17.7,0.9 17.9,2.3 L17.9,3 L17.9,5.3 Z M15.7,1.1 C14.6,1 13.6,1 12.6,1.1 L12.6,4 C12.7,4.1 12.8,4.2 12.9,4.2 L15.3,4.2 C15.4,4.2 15.7,4 15.7,3.8 C15.7,2.9 15.7,2.1 15.7,1.1 Z M13.5,8.7 C13.5,10.8 11.8,12.6 9.7,12.5 C7.3,12.5 5.8,10.5 5.8,8.6 C5.8,6.5 7.5,4.8 9.7,4.8 C11.8,4.8 13.5,6.5 13.5,8.7 Z" id="instagram" fill="#000000" sketch:type="MSShapeGroup"></path>
    </g>
</svg>