<?xml version="1.0" encoding="UTF-8" standalone="no"?>
<svg width="19px" height="15px" viewBox="0 0 19 15" version="1.1" xmlns="http://www.w3.org/2000/svg" xmlns:xlink="http://www.w3.org/1999/xlink" xmlns:sketch="http://www.bohemiancoding.com/sketch/ns">
    <!-- Generator: Sketch 3.3.3 (12081) - http://www.bohemiancoding.com/sketch -->
    <title>email</title>
    <desc>Created with Sketch.</desc>
    <defs></defs>
    <g id="Page-1" stroke="none" stroke-width="1" fill="none" fill-rule="evenodd" sketch:type="MSPage">
        <path d="M19,1.9 C18.2,2.7 17.3,3.5 16.4,4.4 C14.5,6.3 12.6,8.2 10.6,10.2 C10.5,10.3 10.4,10.4 10.3,10.5 C9.8,11 9.4,11 8.9,10.5 C7.8,9.4 6.8,8.4 5.7,7.3 L0.4,2 C0.3,1.9 0.3,1.9 0.2,1.8 C0.2,1.2 0.4,0.9 1,0.9 L1.2,0.9 L17.8,0.9 L18.1,0.9 C18.7,0.9 19,1.2 19,1.9 Z M0.3,13.3 C0.8,12.6 5.1,8.4 5.4,8.3 C5.5,8.4 5.6,8.5 5.8,8.6 C6.6,9.4 7.5,10.3 8.3,11.1 C9.1,11.9 10.2,11.9 11,11.1 C11.9,10.3 12.7,9.4 13.6,8.5 C13.7,8.4 13.9,8.3 14,8.1 C14.2,8.2 14.3,8.3 14.4,8.4 C15.9,9.9 17.3,11.3 18.8,12.8 C19,13 19.1,13.3 19,13.6 C18.9,13.9 18.6,14.1 18.3,14.1 L17.9,14.1 L1.3,14.1 C0.6,14.2 0.4,14 0.3,13.3 Z M18.9,11.7 C18.8,11.6 18.6,11.5 18.5,11.4 C17.3,10.2 16.1,9 14.9,7.8 C14.8,7.7 14.7,7.6 14.6,7.4 C16,6 17.4,4.6 18.8,3.2 L18.9,3.2 C18.9,3.4 19,3.5 19,3.7 L19,8.9 L19,11.1 L19,11.6 C19,11.6 19,11.7 18.9,11.7 Z M0.4,3.4 C0.7,3.5 4.3,7 4.6,7.6 C4.4,8 0.7,11.7 0.4,11.8 C0.2,11.3 0.2,3.7 0.4,3.4 Z" id="email" fill="#000000" sketch:type="MSShapeGroup"></path>
    </g>
</svg>