<?xml version="1.0" encoding="UTF-8" standalone="no"?>
<svg width="17px" height="22px" viewBox="0 0 17 22" version="1.1" xmlns="http://www.w3.org/2000/svg" xmlns:xlink="http://www.w3.org/1999/xlink" xmlns:sketch="http://www.bohemiancoding.com/sketch/ns">
    <!-- Generator: Sketch 3.3.3 (12081) - http://www.bohemiancoding.com/sketch -->
    <title>pinterest</title>
    <desc>Created with Sketch.</desc>
    <defs></defs>
    <g id="Page-1" stroke="none" stroke-width="1" fill="none" fill-rule="evenodd" sketch:type="MSPage">
        <path d="M7.1,14.5 C6.5,17.2 5.9,19.8 3.8,21.9 C3.7,21.4 3.7,21 3.6,20.5 C3.4,18.6 3.8,16.8 4.3,15 C4.6,13.6 5,12.2 5.3,10.8 C5.3,10.6 5.3,10.4 5.2,10.2 C4.9,9.2 4.8,8.1 5.2,7.1 C5.4,6.5 5.8,6 6.4,5.7 C7.6,5 8.9,5.7 8.9,7.1 C8.9,7.8 8.7,8.5 8.5,9.2 C8.3,10 8,10.8 7.8,11.6 C7.5,13 8.6,14.1 10,13.9 C10.8,13.8 11.4,13.4 11.9,12.9 C12.9,11.8 13.3,10.4 13.5,9 C13.6,8.1 13.6,7.1 13.5,6.3 C13.2,4.6 12.1,3.5 10.4,3.1 C8.2,2.5 6.1,2.8 4.3,4.5 C2.8,5.9 2.3,7.7 2.7,9.8 C2.8,10.2 3,10.7 3.3,11 C3.5,11.3 3.6,11.6 3.5,11.9 C3.4,12.1 3.4,12.4 3.3,12.6 C3.2,13 3,13.1 2.6,12.9 C1.3,12.3 0.7,11.3 0.4,10 C-0.3,7 0.8,4.5 3.1,2.6 C5.9,0.4 10.2,0.1 13.2,2 C15.7,3.6 16.8,5.9 16.5,8.8 C16.3,10.5 15.9,12.1 14.8,13.5 C13.7,15 12.2,15.9 10.3,16 C9.1,16 8,15.6 7.1,14.5 L7.1,14.5 Z" id="pinterest" fill="#000000" sketch:type="MSShapeGroup"></path>
    </g>
</svg>