<?xml version="1.0" encoding="UTF-8" standalone="no"?>
<svg width="95px" height="95px" viewBox="0 0 95 95" version="1.1" xmlns="http://www.w3.org/2000/svg" xmlns:xlink="http://www.w3.org/1999/xlink" xmlns:sketch="http://www.bohemiancoding.com/sketch/ns">
    <!-- Generator: Sketch 3.3.3 (12081) - http://www.bohemiancoding.com/sketch -->
    <title>makes-an-impact-4</title>
    <desc>Created with Sketch.</desc>
    <defs></defs>
    <g id="Page-1" stroke="none" stroke-width="1" fill="none" fill-rule="evenodd" sketch:type="MSPage">
        <path d="M61.615,30.158 L32.232,30.158 C31.844,30.158 31.53,30.472 31.53,30.86 L31.53,52.245 C31.53,52.633 31.844,52.947 32.232,52.947 L32.591,52.947 L32.425,54.85 C32.347,55.746 32.44,56.641 32.701,57.51 C32.871,58.075 33.078,58.534 33.316,58.88 L33.316,62.689 C33.316,63.834 34.248,64.765 35.392,64.765 L37.49,64.765 C38.635,64.765 39.567,63.834 39.567,62.689 L39.567,59.523 L54.31,59.523 L54.31,62.689 C54.31,63.834 55.242,64.765 56.387,64.765 L58.485,64.765 C59.63,64.765 60.562,63.834 60.562,62.689 L60.562,58.88 C60.8,58.534 61.007,58.075 61.177,57.509 C61.435,56.653 61.53,55.733 61.453,54.85 L61.286,52.947 L61.615,52.947 C62.002,52.947 62.317,52.633 62.317,52.245 L62.317,30.86 C62.317,30.472 62.002,30.158 61.615,30.158 Z M51.303,53.503 L42.575,53.503 C42.187,53.503 41.873,53.817 41.873,54.205 C41.873,54.593 42.187,54.907 42.575,54.907 L51.303,54.907 C51.691,54.907 52.005,54.593 52.005,54.205 C52.005,53.817 51.691,53.503 51.303,53.503 Z M38.163,62.689 C38.163,63.059 37.861,63.361 37.49,63.361 L35.392,63.361 C35.021,63.361 34.72,63.059 34.72,62.689 L34.72,59.523 L38.163,59.523 L38.163,62.689 L38.163,62.689 Z M58.485,63.361 L56.387,63.361 C56.016,63.361 55.714,63.059 55.714,62.689 L55.714,59.523 L59.158,59.523 L59.158,62.689 C59.158,63.059 58.856,63.361 58.485,63.361 L58.485,63.361 Z M60.913,51.543 L60.52,51.543 C60.323,51.543 60.136,51.626 60.003,51.771 C59.869,51.916 59.804,52.11 59.821,52.306 L60.054,54.972 C60.116,55.68 60.04,56.417 59.833,57.104 C59.699,57.547 59.535,57.906 59.375,58.12 L34.503,58.12 C34.343,57.906 34.178,57.547 34.045,57.105 C33.835,56.408 33.761,55.691 33.824,54.972 L34.057,52.306 C34.074,52.11 34.008,51.916 33.875,51.771 C33.742,51.626 33.554,51.543 33.357,51.543 L32.934,51.543 L32.934,31.562 L60.913,31.562 L60.913,51.543 Z M37.953,51.428 C36.418,51.428 35.169,52.677 35.169,54.212 C35.169,55.747 36.418,56.996 37.953,56.996 C39.488,56.996 40.737,55.747 40.737,54.212 C40.737,52.677 39.488,51.428 37.953,51.428 Z M37.953,55.592 C37.192,55.592 36.573,54.973 36.573,54.212 C36.573,53.451 37.192,52.832 37.953,52.832 C38.714,52.832 39.333,53.451 39.333,54.212 C39.333,54.973 38.714,55.592 37.953,55.592 Z M55.925,51.428 C54.39,51.428 53.141,52.677 53.141,54.212 C53.141,55.747 54.39,56.996 55.925,56.996 C57.46,56.996 58.709,55.747 58.709,54.212 C58.709,52.677 57.46,51.428 55.925,51.428 Z M55.925,55.592 C55.164,55.592 54.545,54.973 54.545,54.212 C54.545,53.451 55.164,52.832 55.925,52.832 C56.686,52.832 57.305,53.451 57.305,54.212 C57.305,54.973 56.686,55.592 55.925,55.592 Z M38.771,50.358 L55.106,50.358 C57.275,50.358 59.692,48.92 59.689,46.8 L59.274,41.715 C59.271,41.684 59.267,41.652 59.26,41.621 C58.892,39.954 57.482,38.271 55.159,38.271 L38.719,38.271 C36.41,38.271 34.996,39.951 34.619,41.617 C34.611,41.649 34.607,41.682 34.604,41.715 L34.186,46.857 C34.186,48.92 36.602,50.358 38.771,50.358 Z M35.999,41.881 C36.268,40.775 37.206,39.674 38.719,39.674 L55.159,39.674 C56.785,39.674 57.636,40.852 57.879,41.88 L58.288,46.857 C58.288,47.915 56.712,48.954 55.106,48.954 L38.771,48.954 C37.166,48.954 35.59,47.915 35.587,46.913 L35.999,41.881 Z M13.901,64.305 L15.229,62.397 C15.649,61.807 15.934,61.551 15.934,61.551 L15.917,61.516 C15.917,61.516 15.617,61.722 14.991,62.035 L11.924,63.572 L11.511,62.75 L16.779,60.109 L17.259,61.066 L15.453,63.538 C15.154,63.945 14.943,64.129 14.943,64.129 L14.962,64.165 C14.962,64.165 15.229,64.098 15.741,64.11 L18.797,64.135 L19.258,65.056 L13.99,67.696 L13.573,66.864 L16.641,65.326 C17.267,65.013 17.615,64.905 17.615,64.905 L17.598,64.869 C17.598,64.869 17.222,64.945 16.493,64.919 L14.175,64.85 L13.901,64.305 Z M18.927,71.726 L17.434,69.834 L15.824,70.392 L15.23,69.638 L21.184,67.679 L21.933,68.629 L18.629,73.947 L18.016,73.17 L18.927,71.726 Z M18.191,69.567 L19.356,71.043 L20.113,69.873 C20.63,69.044 21.044,68.553 21.044,68.553 L21.02,68.522 C21.02,68.522 20.447,68.795 19.527,69.113 L18.191,69.567 Z M22.642,77.657 L22.971,74.494 L22.626,74.189 L20.912,76.128 L20.224,75.519 L24.123,71.11 L24.811,71.72 L23.156,73.591 L23.522,73.915 L26.465,73.182 L27.274,73.896 L23.847,74.681 L23.487,78.405 L22.642,77.657 Z M28.404,81.615 L25.324,79.69 L28.446,74.694 L31.526,76.619 L31.102,77.297 L28.803,75.86 L27.881,77.337 L29.916,78.608 L29.493,79.287 L27.457,78.016 L26.53,79.5 L28.828,80.936 L28.404,81.615 Z M31.556,81.353 C31.383,82.062 31.686,82.552 32.273,82.804 C32.853,83.051 33.362,82.953 33.579,82.447 C33.783,81.97 33.643,81.638 32.901,80.929 C32.181,80.272 31.595,79.608 32.023,78.605 C32.508,77.476 33.563,77.448 34.409,77.81 C35.401,78.235 35.991,78.944 35.639,80.022 L34.73,79.83 C34.932,79.209 34.669,78.727 34.127,78.494 C33.621,78.278 33.136,78.396 32.919,78.902 C32.688,79.445 33.041,79.813 33.677,80.412 C34.374,81.069 34.922,81.696 34.489,82.707 C34.034,83.773 32.987,83.881 31.948,83.436 C30.882,82.979 30.429,82.285 30.674,81.227 L31.556,81.353 Z M42.621,84.578 L40.24,84.204 L39.438,85.708 L38.49,85.56 L41.525,80.074 L42.721,80.262 L43.913,86.41 L42.936,86.256 L42.621,84.578 Z M40.615,83.494 L42.472,83.785 L42.232,82.412 C42.049,81.452 42.018,80.809 42.018,80.809 L41.978,80.803 C41.978,80.803 41.744,81.394 41.286,82.253 L40.615,83.494 Z M49.355,83.872 C49.725,84.378 50.067,84.966 50.067,84.966 L50.106,84.964 C50.106,84.964 50.032,84.337 50.005,83.598 L49.886,80.481 L50.806,80.445 L51.029,86.329 L50.12,86.364 L47.644,83.098 C47.255,82.581 46.922,81.984 46.922,81.984 L46.882,81.985 C46.882,81.985 46.966,82.612 46.995,83.372 L47.113,86.479 L46.194,86.514 L45.97,80.63 L46.908,80.594 L49.355,83.872 Z M56.196,79.29 L57.741,84.971 L56.854,85.213 L55.309,79.531 L56.196,79.29 Z M62.137,81.858 L60.289,80.453 C59.717,80.009 59.474,79.713 59.474,79.713 L59.437,79.729 C59.437,79.729 59.63,80.037 59.917,80.675 L61.321,83.803 L60.483,84.18 L58.071,78.809 L59.046,78.371 L61.437,80.277 C61.831,80.594 62.006,80.81 62.006,80.81 L62.042,80.795 C62.042,80.795 61.985,80.523 62.021,80.016 L62.173,76.966 L63.113,76.544 L65.525,81.914 L64.677,82.295 L63.272,79.168 C62.986,78.53 62.894,78.177 62.894,78.177 L62.856,78.193 C62.856,78.193 62.916,78.571 62.859,79.299 L62.692,81.609 L62.137,81.858 Z M68.068,80.343 L64.676,75.53 L66.129,74.504 C67.322,73.664 68.221,73.862 68.871,74.785 C69.551,75.75 69.431,76.741 68.351,77.501 L67.575,78.048 L68.819,79.813 L68.068,80.343 Z M67.138,77.427 L67.832,76.936 C68.542,76.436 68.511,75.921 68.124,75.373 C67.715,74.794 67.17,74.714 66.557,75.146 L65.871,75.629 L67.138,77.427 Z M74.173,73.149 L72.473,74.855 L73.217,76.389 L72.539,77.068 L69.888,71.389 L70.741,70.531 L76.415,73.183 L75.716,73.883 L74.173,73.149 Z M47.192,94.887 C21.291,94.887 0.219,73.814 0.219,47.913 C0.219,22.012 21.291,0.94 47.192,0.94 C73.094,0.94 94.166,22.012 94.166,47.913 C94.166,73.814 73.094,94.887 47.192,94.887 Z M72.118,74.135 L73.444,72.804 L72.193,72.191 C71.31,71.775 70.772,71.423 70.772,71.423 L70.743,71.451 C70.743,71.451 71.083,71.987 71.509,72.863 L72.118,74.135 Z M79.455,67.054 C79.832,67.969 79.779,68.734 79.115,69.697 C78.248,70.957 76.755,71.203 75.142,70.093 C73.519,68.976 73.234,67.432 74.165,66.082 C74.771,65.2 75.578,64.857 76.586,65.066 L76.444,66.014 C75.731,65.813 75.161,66.027 74.786,66.57 C74.163,67.477 74.524,68.502 75.686,69.302 C76.829,70.09 77.845,70.097 78.48,69.175 C78.888,68.581 78.932,68.042 78.623,67.344 L79.455,67.054 Z M81.834,64.769 L77.228,62.595 L76.498,64.143 L75.773,63.801 L77.636,59.855 L78.359,60.197 L77.625,61.754 L82.231,63.928 L81.834,64.769 Z M47.192,2.189 C21.98,2.189 1.469,22.701 1.469,47.913 C1.469,73.125 21.98,93.637 47.192,93.637 C72.404,93.637 92.916,73.125 92.916,47.913 C92.916,22.701 72.404,2.189 47.192,2.189 Z M25.655,22.369 L23.018,24.861 L18.975,20.583 L21.612,18.091 L22.161,18.673 L20.192,20.532 L21.388,21.797 L23.131,20.148 L23.681,20.73 L21.937,22.378 L23.138,23.649 L25.106,21.789 L25.655,22.369 Z M26.923,18.755 C27.654,19.333 28.074,19.772 28.074,19.772 L28.107,19.75 C28.107,19.75 27.842,19.217 27.565,18.329 L26.439,14.573 L27.242,14.028 L28.939,19.996 L27.938,20.676 L23.032,16.889 L23.85,16.333 L26.923,18.755 Z M34.962,16.818 L31.668,18.349 L29.186,13.003 L32.48,11.475 L32.816,12.199 L30.358,13.342 L31.091,14.921 L33.269,13.909 L33.605,14.636 L31.429,15.647 L32.165,17.234 L34.625,16.093 L34.962,16.818 Z M39.654,15.402 C39.476,15.284 39.366,15.148 39.258,14.94 L38.755,14.019 C38.408,13.399 38.036,13.366 37.477,13.52 L36.714,13.729 L37.348,16.035 L36.46,16.28 L34.897,10.595 L36.866,10.054 C38.169,9.696 38.957,10.07 39.252,11.144 C39.499,12.04 39.03,12.678 38.327,12.913 L38.335,12.941 C38.894,12.86 39.247,13.013 39.568,13.578 L40.165,14.618 C40.297,14.831 40.436,15 40.63,15.134 L39.654,15.402 Z M36.51,12.986 L37.552,12.7 C38.267,12.504 38.522,12.112 38.344,11.464 C38.182,10.877 37.746,10.611 37.042,10.806 L35.989,11.095 L36.51,12.986 Z M42.9,10.803 C43.308,11.434 43.411,11.753 43.411,11.753 L43.452,11.75 C43.452,11.75 43.478,11.416 43.725,10.717 L44.396,8.768 L45.359,8.667 L43.95,12.491 L44.182,14.707 L43.268,14.803 L43.036,12.587 L40.748,9.148 L41.792,9.04 L42.9,10.803 Z M50.388,13.064 C50.415,13.795 50.839,14.182 51.474,14.264 C52.099,14.344 52.563,14.11 52.633,13.565 C52.698,13.049 52.473,12.769 51.566,12.289 C50.694,11.853 49.949,11.375 50.088,10.293 C50.245,9.073 51.253,8.759 52.165,8.877 C53.237,9.015 53.997,9.535 53.952,10.669 L53.026,10.731 C53.05,10.079 52.667,9.688 52.082,9.612 C51.536,9.542 51.101,9.788 51.03,10.334 C50.955,10.919 51.397,11.178 52.172,11.58 C53.022,12.021 53.721,12.475 53.58,13.566 C53.433,14.717 52.454,15.104 51.333,14.961 C50.182,14.813 49.557,14.27 49.505,13.185 L50.388,13.064 Z M54.868,15.395 L56.609,9.771 L57.488,10.044 L56.749,12.431 L59.432,13.262 L60.171,10.875 L61.049,11.147 L59.308,16.769 L58.429,16.498 L59.194,14.025 L56.513,13.195 L55.746,15.667 L54.868,15.395 Z M64.492,12.703 L61.955,18.021 L61.125,17.625 L63.661,12.307 L64.492,12.703 Z M66.518,20.711 C66.487,20.5 66.517,20.329 66.599,20.108 L66.953,19.122 C67.186,18.451 66.964,18.151 66.477,17.836 L65.814,17.406 L64.514,19.41 L63.741,18.909 L66.948,13.97 L68.659,15.08 C69.791,15.814 70.034,16.652 69.431,17.583 C68.924,18.363 68.138,18.436 67.495,18.067 L67.478,18.093 C67.91,18.456 68.031,18.82 67.822,19.435 L67.442,20.572 C67.37,20.811 67.337,21.027 67.365,21.261 L66.518,20.711 Z M66.233,16.76 L67.14,17.349 C67.76,17.75 68.223,17.682 68.587,17.119 C68.919,16.607 68.827,16.107 68.215,15.709 L67.301,15.116 L66.233,16.76 Z M69.212,22.882 L72.634,19.109 L71.366,17.959 L71.904,17.367 L75.136,20.298 L74.599,20.892 L73.323,19.734 L69.901,23.508 L69.212,22.882 Z M11.269,49.288 C9.849,49.288 8.693,48.133 8.693,46.714 C8.693,45.294 9.849,44.139 11.269,44.139 C12.688,44.139 13.844,45.294 13.844,46.714 C13.844,48.133 12.688,49.288 11.269,49.288 Z M11.269,45.389 C10.538,45.389 9.943,45.983 9.943,46.714 C9.943,47.444 10.538,48.038 11.269,48.038 C11.999,48.038 12.594,47.444 12.594,46.714 C12.594,45.983 11.999,45.389 11.269,45.389 Z M83.116,49.288 C81.696,49.288 80.541,48.133 80.541,46.714 C80.541,45.294 81.696,44.139 83.116,44.139 C84.536,44.139 85.691,45.294 85.691,46.714 C85.691,48.133 84.536,49.288 83.116,49.288 Z M83.116,45.389 C82.386,45.389 81.791,45.983 81.791,46.714 C81.791,47.444 82.386,48.038 83.116,48.038 C83.847,48.038 84.441,47.444 84.441,46.714 C84.441,45.983 83.847,45.389 83.116,45.389 L83.116,45.389 Z" id="makes-an-impact-4" fill="#4AB2BE" sketch:type="MSShapeGroup"></path>
    </g>
</svg>