<?xml version="1.0" encoding="UTF-8" standalone="no"?>
<svg width="44px" height="29px" viewBox="0 0 44 29" version="1.1" xmlns="http://www.w3.org/2000/svg" xmlns:xlink="http://www.w3.org/1999/xlink" xmlns:sketch="http://www.bohemiancoding.com/sketch/ns">
    <!-- Generator: Sketch 3.3.3 (12081) - http://www.bohemiancoding.com/sketch -->
    <title>shipping</title>
    <desc>Created with Sketch.</desc>
    <defs></defs>
    <g id="Page-1" stroke="none" stroke-width="1" fill="none" fill-rule="evenodd" sketch:type="MSPage">
        <path d="M39.2,4 L30.8,4 L30.8,0.4 L0.4,0.4 L0.4,23.3 L6.7,23.3 C6.7,23.6 6.6,23.8 6.6,24.1 C6.6,26.5 8.6,28.5 11,28.5 C13.4,28.5 15.4,26.5 15.4,24.1 C15.4,23.8 15.4,23.6 15.3,23.3 L31.3,23.3 C31.3,23.6 31.2,23.8 31.2,24.1 C31.2,26.5 33.2,28.5 35.6,28.5 C38,28.5 40,26.5 40,24.1 C40,23.8 40,23.6 39.9,23.3 L43.6,23.3 L43.6,14.5 L43.6,11.6 L39.2,4 L39.2,4 Z" id="shipping" opacity="0.55" fill="#2BC1D6" sketch:type="MSShapeGroup"></path>
    </g>
</svg>