<?xml version="1.0" encoding="utf-8"?>
<!-- Generator: Adobe Illustrator 18.1.0, SVG Export Plug-In . SVG Version: 6.00 Build 0)  -->
<svg version="1.1" id="Layer_1" xmlns="http://www.w3.org/2000/svg" xmlns:xlink="http://www.w3.org/1999/xlink" x="0px" y="0px"
	 viewBox="0 0 33.1 22.1" enable-background="new 0 0 33.1 22.1" xml:space="preserve">
<g>
	<g>
		<path fill="#F3F4F4" d="M33.1,19.3c0,1.5-1.2,2.8-2.8,2.8H2.8c-1.5,0-2.8-1.2-2.8-2.8V2.8C0,1.2,1.2,0,2.8,0h27.6
			c1.5,0,2.8,1.2,2.8,2.8V19.3z"/>
		<path fill="#5666AF" d="M0.6,5.5V2.8C0.6,1.2,1.8,0,3.3,0h26.5c1.5,0,2.8,1.2,2.8,2.8v2.8"/>
		<path fill="#E6A226" d="M32.6,16.6v2.8c0,1.5-1.2,2.2-2.8,2.2H3.3c-1.5,0-2.8-0.7-2.8-2.2v-2.8"/>
		<g>
			<path fill="#5666AF" d="M9.6,12.9c0.2-0.6,0.4-1,0.5-1.2l1.9-3.8h1.4l-3.2,6.3H8.6L8.1,7.9h1.3l0.2,3.8c0,0.1,0,0.3,0,0.6
				C9.6,12.6,9.6,12.8,9.6,12.9L9.6,12.9z"/>
			<path fill="#5666AF" d="M12.7,14.2l1.3-6.3h1.3l-1.3,6.3H12.7z"/>
			<path fill="#5666AF" d="M19.4,12.3c0,0.6-0.2,1.1-0.6,1.4c-0.4,0.3-1,0.5-1.7,0.5c-0.6,0-1.1-0.1-1.5-0.4v-1.2
				c0.6,0.3,1.1,0.5,1.5,0.5c0.3,0,0.6-0.1,0.8-0.2c0.2-0.1,0.3-0.3,0.3-0.5c0-0.1,0-0.2-0.1-0.3c0-0.1-0.1-0.2-0.2-0.3
				c-0.1-0.1-0.3-0.2-0.5-0.4c-0.4-0.3-0.7-0.6-0.8-0.8c-0.2-0.3-0.2-0.6-0.2-0.9c0-0.4,0.1-0.7,0.3-1C16.7,8.4,17,8.2,17.3,8
				c0.3-0.2,0.7-0.2,1.1-0.2c0.6,0,1.2,0.1,1.7,0.4l-0.5,1c-0.4-0.2-0.9-0.3-1.2-0.3c-0.2,0-0.4,0.1-0.6,0.2
				c-0.2,0.1-0.2,0.3-0.2,0.5c0,0.2,0,0.3,0.1,0.5c0.1,0.1,0.3,0.3,0.6,0.5c0.3,0.2,0.6,0.5,0.8,0.8C19.3,11.6,19.4,12,19.4,12.3z"
				/>
			<path fill="#5666AF" d="M23.7,12.7h-2l-0.7,1.5h-1.4l3.3-6.3h1.6l0.6,6.3h-1.3L23.7,12.7z M23.6,11.6l-0.1-1.5c0-0.4,0-0.7,0-1.1
				V8.8c-0.1,0.3-0.3,0.7-0.5,1.1l-0.8,1.7H23.6z"/>
		</g>
		<path fill="#FFFFFF" d="M16.6,0"/>
		<path opacity="4.000000e-02" fill="#FFFFFF" enable-background="new    " d="M32.3,0.8c0.5,0.5,0.8,1.2,0.8,2V11v8.3
			c0,0.8-0.3,1.4-0.8,2c-0.5,0.5-1.2,0.8-2,0.8H16.6H2.8c-0.8,0-1.4-0.3-2-0.8L32.3,0.8z"/>
		<g>
			<path fill="#F7F8F9" d="M30.4,0.6c1.2,0,2.2,1,2.2,2.2v16.6c0,1.2-1,2.2-2.2,2.2H2.8c-1.2,0-2.2-1-2.2-2.2V2.8
				c0-1.2,1-2.2,2.2-2.2H30.4 M30.4,0H2.8C1.2,0,0,1.2,0,2.8v16.6c0,1.5,1.2,2.8,2.8,2.8h27.6c1.5,0,2.8-1.2,2.8-2.8V2.8
				C33.1,1.2,31.9,0,30.4,0L30.4,0z"/>
		</g>
	</g>
</g>
</svg>
