<?xml version="1.0" encoding="utf-8"?>
<!-- Generator: Adobe Illustrator 18.1.0, SVG Export Plug-In . SVG Version: 6.00 Build 0)  -->
<svg version="1.1" id="Layer_1" xmlns="http://www.w3.org/2000/svg" xmlns:xlink="http://www.w3.org/1999/xlink" x="0px" y="0px"
	 viewBox="0 0 105.1 25.4" enable-background="new 0 0 105.1 25.4" xml:space="preserve">
<g>
	<path fill="#214081" d="M5.5,22.3c-0.2,0.1-0.5,0.1-0.7,0.2c-1.3,0-2.6,0-4,0c-0.7,0-1-0.4-0.8-1.1c0.3-1.7,0.6-3.4,0.8-5.1
		C1.2,14,1.6,11.8,2,9.6c0.2-1.4,0.4-2.8,0.6-4.2C2.8,3.9,3,2.5,3.3,1.1C3.4,0.3,3.8,0,4.7,0c3.3,0,6.5,0,9.8,0.1
		c1.3,0,2.4,0.5,3.4,1.3c1.1,0.9,1.6,2.2,1.6,3.6c0,0.5,0,1,0,1.5c-0.1,0.2-0.2,0.4-0.3,0.5c0-0.3-0.1-0.5-0.1-0.8
		C18.4,6.1,17.9,6,17.4,6c-2.8,0-5.6,0-8.4,0C8.4,6,8,6.4,7.9,6.8C7.7,7.4,7.6,8.1,7.5,8.7c-0.2,1.5-0.3,3.1-0.5,4.6
		c0,0.2-0.1,0.3-0.2,0.5c-0.1,0.3-0.2,0.5,0.2,0.6c-0.2,0.5-0.4,0.9-0.5,1.4c-0.1,0.4,0,0.8-0.1,1.1C6.2,18.7,5.9,20.5,5.5,22.3z"/>
	<path fill="#214183" d="M37.6,5.6c1.1,0,2.3,0,3.4,0c0.9,0,1.8,0.4,2.5,1c1,0.9,1.3,2,1.2,3.3c-0.2,1.9-0.6,3.7-2.1,5
		c-0.9,0.8-1.9,1.2-3,1.3c-1,0.1-1.9,0-2.9,0.1c-1.1,0-1.2,0.1-1.4,1.2c-0.1,1-0.3,2-0.4,2.9c-0.2,1.1-0.2,1.2-1.4,1.2
		c-0.6,0-1.3,0-1.9,0c-0.7,0-0.8-0.2-0.7-0.9c0.1-0.8,0.3-1.6,0.4-2.4c0.4-2.5,0.7-4.9,1.1-7.4c0.2-1.4,0.4-2.7,0.7-4
		c0.2-1.1,0.4-1.2,1.5-1.2C35.6,5.6,36.6,5.6,37.6,5.6C37.6,5.6,37.6,5.6,37.6,5.6z M36.1,13c0.1,0,0.1,0.1,0.2,0.1
		c0.5,0,0.9,0,1.4,0c1.5,0,2.4-0.6,2.8-2.1c0.3-1.3-0.4-2.4-1.7-2.5c-0.4,0-0.7,0-1.1,0c-1,0-1.1,0.1-1.2,1.1
		C36.4,10.8,36.2,11.9,36.1,13z"/>
	<path fill="#27A0DA" d="M73.9,21.6c-0.2,0-0.4,0-0.6,0c-1.2,0-1.3-0.1-1.1-1.3c0.3-2.1,0.7-4.3,1-6.4c0.3-1.7,0.5-3.4,0.7-5
		c0.1-0.7,0.2-1.5,0.4-2.2c0.1-0.8,0.5-1,1.2-1c2.2,0,4.4,0,6.6,0c1.2,0,2.3,0.4,3,1.4c0.4,0.5,0.7,1.2,0.8,1.8
		c0.2,2.2-0.3,4.2-1.8,5.8c-0.9,0.9-2,1.4-3.3,1.5c-0.9,0.1-1.9,0-2.8,0c-1.1,0-1.3,0.3-1.5,1.4c-0.1,1-0.3,2-0.5,3
		c-0.2,0.8-0.3,0.9-1.2,0.9C74.6,21.6,74.3,21.6,73.9,21.6z M78.7,13.2c1.6,0.1,2.7-0.5,3-2.1c0.2-1.2-0.4-2.4-1.6-2.5
		c-0.5,0-1,0-1.5,0c-0.5,0-0.7,0.2-0.7,0.6c-0.1,0.9-0.3,1.8-0.4,2.7C77.3,13.2,77.4,13.2,78.7,13.2z"/>
	<path fill="#269ED9" d="M19.1,7c0.1-0.2,0.2-0.4,0.3-0.5c2.1,1.2,2.2,3.2,1.9,5.3c-0.2,1.6-0.9,3-1.9,4.2c-0.7,0.8-1.6,1.3-2.6,1.7
		c-1.1,0.5-2.3,0.4-3.5,0.4c-1.2,0-1.6,0.1-1.9,1.8c-0.2,1.5-0.4,3.1-0.7,4.6c-0.1,0.7-0.4,0.9-1.1,0.9c-1.2,0-2.4,0-3.6,0
		c-0.7,0-0.9-0.2-0.8-0.8c0.1-0.8,0.2-1.5,0.3-2.3c0.3-1.8,0.6-3.5,0.9-5.3c0.1-0.4,0-0.8,0.1-1.1c0.1-0.5,0.3-1,0.5-1.4l0,0
		c0.4-0.1,0.8-0.2,1.2-0.2c1.2,0,2.3,0,3.5,0c0.4,0,0.7-0.2,1.1-0.3c0.2,0,0.3,0,0.5,0c0.2-0.1,0.4-0.2,0.6-0.3c0.1,0,0.2,0,0.3,0
		c0.2-0.1,0.4-0.2,0.5-0.3c0.1,0,0.2,0,0.3-0.1c0.1-0.1,0.2-0.2,0.4-0.3c0.3-0.2,0.6-0.4,0.9-0.6c0.1-0.1,0.3-0.2,0.4-0.3
		c0.3-0.3,0.6-0.6,0.8-0.9C18.4,9.9,19,8.6,19.1,7z"/>
	<path fill="#1F4385" d="M53.7,12.1c0-0.2,0.1-0.3,0.1-0.5c0.1-0.5,0.3-0.7,0.8-0.7c0.7,0,1.3,0,2,0c0.6,0,0.8,0.3,0.7,0.9
		c-0.3,1.5-0.5,3.1-0.8,4.6c-0.2,1.4-0.4,2.8-0.6,4.2c-0.1,0.8-0.3,0.9-1.1,1c-0.7,0-1.5,0-2.3,0c0-0.5-0.1-0.8-0.1-1.3
		c-0.3,0.2-0.6,0.3-0.7,0.5c-1.3,1.4-4.2,1.4-5.7,0.5c-1.6-1.1-2.3-2.7-2-4.9c0.3-1.9,1.1-3.5,2.7-4.7c1.7-1.2,3.6-1.5,5.5-0.8
		C52.8,11.1,53.2,11.6,53.7,12.1z M50.8,13.6c-1.3,0-2.6,0.8-3.1,2c-0.6,1.4,0.1,3,1.6,3.4c1.3,0.4,2.9-0.4,3.7-1.9
		C53.9,15.5,52.7,13.4,50.8,13.6z"/>
	<path fill="#29A1DB" d="M93.6,20.3c-0.7,0.4-1.2,0.9-1.8,1.2c-1.7,0.7-3.4,0.7-4.9-0.4c-1.6-1.2-2.1-2.9-1.7-4.9
		c0.2-1.2,0.7-2.4,1.6-3.4c1.1-1.2,2.4-2,4.1-2.2c1.1-0.1,2.2-0.2,3.1,0.6c0.3,0.2,0.5,0.5,0.8,0.7c0.1,0,0.2,0,0.2-0.1
		c0.4-1,0.4-1,1.4-1c0.4,0,0.8,0,1.2,0c0.8,0,0.9,0.2,0.8,0.9c-0.3,1.8-0.6,3.6-0.9,5.4c-0.2,1-0.3,2-0.4,3.1
		c-0.1,1-0.3,1.2-1.3,1.2c-0.5,0-1,0-1.5,0c-0.6,0-0.9-0.2-0.8-0.8C93.6,20.7,93.6,20.6,93.6,20.3z M92.1,13.6
		c-1.2-0.1-2.1,0.5-2.7,1.4c-1.1,1.7-0.6,3.9,1.8,4.1c1.2,0.1,2.2-0.6,2.9-1.6c0.6-0.9,0.7-1.8,0.2-2.7C93.8,13.9,93,13.5,92.1,13.6
		z"/>
	<path fill="#1F4385" d="M64.5,16.8c0.4-0.5,0.7-0.8,0.9-1.1c0.9-1.3,1.8-2.7,2.7-4c0.3-0.5,0.7-0.8,1.4-0.8c0.6,0.1,1.3,0,1.9,0
		c0.2,0,0.6,0.1,0.7,0.3c0.1,0.2,0,0.5-0.2,0.7c-0.9,1.4-1.9,2.7-2.8,4c-2,2.9-4.1,5.8-6.1,8.7c-0.4,0.5-0.8,0.8-1.4,0.7
		c-0.6,0-1.3,0-1.9,0c-0.8,0-0.9-0.3-0.5-0.9c0.8-1.2,1.6-2.3,2.4-3.5c0.3-0.4,0.3-0.7,0.2-1.1c-0.6-1.6-1.1-3.2-1.7-4.8
		c-0.3-1-0.7-2-1-3c-0.3-0.7,0-1.1,0.7-1.1c0.7,0,1.3,0,2,0c0.6,0,1,0.3,1.1,0.8c0.4,1.4,0.9,2.9,1.3,4.3
		C64.3,16.3,64.4,16.5,64.5,16.8z"/>
	<path fill="#29A1DB" d="M100.9,21.6c-0.4,0-0.8,0-1.2,0c-0.5,0-0.7-0.2-0.6-0.7c0.2-0.9,0.3-1.8,0.4-2.7c0.2-1,0.4-2,0.6-3.1
		c0.1-0.5,0.1-1.1,0.2-1.6c0.3-2.2,0.7-4.3,1-6.5c0-0.2,0.1-0.5,0.1-0.7c0.1-0.4,0.4-0.7,0.9-0.7c0.7,0.1,1.4,0,2.1,0
		c0.5,0,0.7,0.3,0.6,0.7c-0.2,1.5-0.5,3-0.7,4.4c-0.3,1.6-0.5,3.2-0.8,4.8c-0.2,1.6-0.5,3.1-0.7,4.7c-0.2,1.2-0.2,1.3-1.4,1.3
		C101.3,21.6,101.1,21.6,100.9,21.6C100.9,21.6,100.9,21.6,100.9,21.6z"/>
	<path fill="#26326C" d="M16.3,12.4c-0.3,0.2-0.6,0.4-0.9,0.6c-0.1,0.1-0.2,0.2-0.4,0.3c-0.1,0-0.2,0-0.3,0.1
		c-0.2,0.1-0.4,0.2-0.5,0.3c-0.1,0-0.2,0-0.3,0c-0.2,0.1-0.4,0.2-0.6,0.3c-0.2,0-0.3,0-0.5,0c-0.4,0-0.8,0-1.2,0c-1.2,0-2.3,0-3.5,0
		c-0.4,0-0.9-0.1-1.1,0.5l0,0c-0.4-0.1-0.4-0.3-0.2-0.6C6.9,13.6,7,13.5,7,13.3c0.2-1.5,0.3-3.1,0.5-4.6c0.1-0.6,0.2-1.3,0.4-1.9
		C8,6.4,8.4,6,9,6c2.8,0,5.6,0,8.4,0c0.5,0,1.1,0.2,1.7,0.2c0,0.3,0.1,0.5,0.1,0.8c-0.1,1.6-0.8,2.9-1.7,4.2
		c-0.2,0.3-0.5,0.6-0.8,0.9C16.5,12.2,16.4,12.3,16.3,12.4z"/>
</g>
</svg>
