<?xml version="1.0" encoding="utf-8"?>
<!-- Generator: Adobe Illustrator 18.1.0, SVG Export Plug-In . SVG Version: 6.00 Build 0)  -->
<svg version="1.1" id="Layer_1" xmlns="http://www.w3.org/2000/svg" xmlns:xlink="http://www.w3.org/1999/xlink" x="0px" y="0px"
	 viewBox="0 0 33.1 22.1" enable-background="new 0 0 33.1 22.1" xml:space="preserve">
<g>
	<g>
		<path fill="#FFF9F1" d="M33.1,19.3c0,1.5-1.2,2.8-2.8,2.8H2.8c-1.5,0-2.8-1.2-2.8-2.8V2.8C0,1.2,1.2,0,2.8,0h27.6
			c1.5,0,2.8,1.2,2.8,2.8V19.3z"/>
		<g>
			<path fill="#6D6E71" d="M8.4,11c0,0.6-0.2,1-0.5,1.3c-0.3,0.3-0.8,0.4-1.4,0.4h-1V9.4h1.1c0.5,0,1,0.1,1.3,0.4
				C8.2,10.1,8.4,10.5,8.4,11z M7.6,11c0-0.7-0.3-1.1-1-1.1H6.3v2.2h0.3C7.3,12.1,7.6,11.8,7.6,11z"/>
			<path fill="#6D6E71" d="M9,12.7V9.4h0.7v3.4H9z"/>
			<path fill="#6D6E71" d="M12.5,11.8c0,0.3-0.1,0.5-0.3,0.7c-0.2,0.2-0.5,0.3-0.9,0.3c-0.4,0-0.7-0.1-1-0.2v-0.7
				c0.2,0.1,0.4,0.2,0.6,0.2c0.2,0,0.3,0.1,0.4,0.1c0.2,0,0.3,0,0.4-0.1c0.1-0.1,0.1-0.1,0.1-0.3c0-0.1,0-0.1-0.1-0.2
				c0-0.1-0.1-0.1-0.2-0.1c-0.1,0-0.2-0.1-0.4-0.2c-0.2-0.1-0.4-0.2-0.5-0.3c-0.1-0.1-0.2-0.2-0.2-0.3c-0.1-0.1-0.1-0.3-0.1-0.4
				c0-0.3,0.1-0.5,0.3-0.7c0.2-0.2,0.5-0.3,0.8-0.3c0.2,0,0.3,0,0.5,0.1c0.2,0,0.3,0.1,0.5,0.2l-0.2,0.6C12.1,10,11.9,10,11.8,10
				c-0.1,0-0.2,0-0.3,0c-0.1,0-0.2,0-0.3,0.1c-0.1,0.1-0.1,0.1-0.1,0.2c0,0.1,0,0.1,0,0.2c0,0,0.1,0.1,0.1,0.1
				c0.1,0,0.2,0.1,0.5,0.2c0.3,0.2,0.5,0.3,0.6,0.5C12.4,11.4,12.5,11.6,12.5,11.8z"/>
			<path fill="#6D6E71" d="M14.5,9.9c-0.3,0-0.5,0.1-0.6,0.3c-0.1,0.2-0.2,0.5-0.2,0.8c0,0.7,0.3,1.1,0.8,1.1c0.2,0,0.5-0.1,0.9-0.2
				v0.6c-0.3,0.1-0.6,0.2-0.9,0.2c-0.5,0-0.9-0.1-1.1-0.4C13.1,12,13,11.6,13,11c0-0.3,0.1-0.7,0.2-0.9c0.1-0.3,0.3-0.5,0.5-0.6
				c0.2-0.1,0.5-0.2,0.8-0.2c0.3,0,0.7,0.1,1,0.2l-0.2,0.6C15.2,10.1,15,10,14.9,10C14.8,9.9,14.7,9.9,14.5,9.9z"/>
			<path fill="#6D6E71" d="M21.1,9.4h0.7l-1.1,3.4h-0.8l-1.1-3.4h0.7l0.6,2c0,0.1,0.1,0.3,0.1,0.4c0,0.2,0.1,0.3,0.1,0.3
				c0-0.1,0.1-0.4,0.2-0.7L21.1,9.4z"/>
			<path fill="#6D6E71" d="M24.2,12.7h-1.9V9.4h1.9V10H23v0.7h1.1v0.6H23v0.9h1.2V12.7z"/>
			<path fill="#6D6E71" d="M25.6,11.4v1.3h-0.7V9.4h1c0.5,0,0.8,0.1,1,0.2c0.2,0.2,0.3,0.4,0.3,0.8c0,0.2-0.1,0.4-0.2,0.5
				c-0.1,0.2-0.3,0.3-0.5,0.4c0.5,0.8,0.8,1.2,1,1.5h-0.8L26,11.4L25.6,11.4L25.6,11.4z M25.6,10.9h0.2c0.2,0,0.4,0,0.5-0.1
				c0.1-0.1,0.2-0.2,0.2-0.4c0-0.2-0.1-0.3-0.2-0.3C26.2,10,26,9.9,25.8,9.9h-0.2L25.6,10.9L25.6,10.9z"/>
			<circle fill="#E6A226" cx="17.2" cy="11" r="1.7"/>
		</g>
		<path fill="#E6A226" d="M33.1,15.2v4.1c0,0.4-0.1,0.7-0.2,1.1c-0.1,0.3-0.3,0.6-0.6,0.9c-0.3,0.3-0.5,0.5-0.9,0.6
			c-0.3,0.1-0.7,0.2-1.1,0.2H18H5.6L33.1,15.2z"/>
		<path opacity="8.000000e-02" fill="#FFFFFF" enable-background="new    " d="M32.3,0.8c0.5,0.5,0.8,1.2,0.8,2V11v8.3
			c0,0.8-0.3,1.4-0.8,2c-0.5,0.5-1.2,0.8-2,0.8H16.6H2.8c-0.8,0-1.4-0.3-2-0.8L32.3,0.8z"/>
		<g>
			<path fill="#F7F5F2" d="M30.4,0.6c1.2,0,2.2,1,2.2,2.2v16.6c0,1.2-1,2.2-2.2,2.2H2.8c-1.2,0-2.2-1-2.2-2.2V2.8
				c0-1.2,1-2.2,2.2-2.2H30.4 M30.4,0H2.8C1.2,0,0,1.2,0,2.8v16.6c0,1.5,1.2,2.8,2.8,2.8h27.6c1.5,0,2.8-1.2,2.8-2.8V2.8
				C33.1,1.2,31.9,0,30.4,0L30.4,0z"/>
		</g>
	</g>
</g>
</svg>
