<?xml version="1.0" encoding="utf-8"?>
<!-- Generator: Adobe Illustrator 18.1.0, SVG Export Plug-In . SVG Version: 6.00 Build 0)  -->
<svg version="1.1" id="Layer_1" xmlns="http://www.w3.org/2000/svg" xmlns:xlink="http://www.w3.org/1999/xlink" x="0px" y="0px"
	 viewBox="0 0 34.4 23" enable-background="new 0 0 34.4 23" xml:space="preserve">
<g>
	<g>
		<g>
			<path fill="#CECECD" d="M34.4,20.1c0,1.6-1.3,2.9-2.9,2.9H2.9C1.3,23,0,21.7,0,20.1V2.9C0,1.3,1.3,0,2.9,0h28.7
				c1.6,0,2.9,1.3,2.9,2.9V20.1z"/>
		</g>
		<rect x="0.3" y="3.6" fill="#434244" width="33.9" height="4.6"/>
		<rect x="4.4" y="10.5" fill="#FFFFFF" width="20.7" height="4.6"/>
		<rect x="6.2" y="12.2" fill="#434244" width="16.6" height="1.1"/>
		<g>
			<g>
				<path fill="#DFDEDC" d="M31.6,0.6c1.3,0,2.3,1,2.3,2.3v17.2c0,1.3-1,2.3-2.3,2.3H2.9c-1.3,0-2.3-1-2.3-2.3V2.9
					c0-1.3,1-2.3,2.3-2.3H31.6 M31.6,0H2.9C1.3,0,0,1.3,0,2.9v17.2C0,21.7,1.3,23,2.9,23h28.7c1.6,0,2.9-1.3,2.9-2.9V2.9
					C34.4,1.3,33.1,0,31.6,0L31.6,0z"/>
			</g>
		</g>
		<rect x="26.8" y="10.5" fill="#FFFFFF" width="4.6" height="4.6"/>
		<rect x="27.4" y="12.2" fill="#434244" width="3.4" height="1.1"/>
		<circle fill="none" stroke="#E9574C" stroke-width="2" stroke-miterlimit="10" cx="28.8" cy="12.7" r="4.4"/>
	</g>
</g>
</svg>
